# xmcd
#
# Track frame offsets:
#	150
#	12594
#	34000
#	53865
#	67590
#	78683
#	90752
#	107141
#	123651
#	138775
#	154323
#	167926
#
# Disc length: 2514 seconds
#
# Revision: 4
# Processed by: cddbd v1.5.2PL0 Copyright (c) Steve Scherf et al.
# Submitted via: audiograbber 1.83.01
#
DISCID=9609d00c
DTITLE=Kris Kristofferson - The Complete Monument and Columbia Albums Collection 
DTITLE=(CD 01) - Kristofferson [remastered 2016]
DYEAR=1970
DGENRE=Singer/Songwriter
TTITLE0=Blame It On The Stones
TTITLE1=To Beat The Devil
TTITLE2=Me And Bobby McGee
TTITLE3=The Best Of All Possible  Worlds
TTITLE4=Help Me Make It Through The Night
TTITLE5=The Law Is For Protection Of The People
TTITLE6=Casey's Last Ride
TTITLE7=Just The Other Side Of Nowhere
TTITLE8=Darby's Castle
TTITLE9=For The Good Times
TTITLE10=Duvalier's Dream
TTITLE11=Sunday Mornin' Comin' Down
EXTD=
EXTT0=
EXTT1=
EXTT2=
EXTT3=
EXTT4=
EXTT5=
EXTT6=
EXTT7=
EXTT8=
EXTT9=
EXTT10=
EXTT11=
PLAYORDER=
